<svg width="75" height="75" viewBox="0 0 75 75" fill="none" xmlns="http://www.w3.org/2000/svg">
<mask id="mask0_2134_82" style="mask-type:alpha" maskUnits="userSpaceOnUse" x="0" y="0" width="75" height="75">
<circle cx="37.2305" cy="37.2305" r="36.2565" fill="#D9D9D9" stroke="#BA5252" stroke-width="1.94794"/>
</mask>
<g mask="url(#mask0_2134_82)">
<circle cx="37.2305" cy="37.2305" r="37.2305" fill="white"/>
<path d="M20.4302 -28.5485C19.4151 -29.1408 15.9121 -32.0767 15.6103 -32.5786C15.5295 -32.7251 15.62 -32.9355 16.0963 -33.4696L23.4072 -40.7805C24.4947 -41.9374 25.2097 -42.7881 25.6146 -43.4132C26.8067 -45.2309 28.7726 -49.2218 29.3612 -50.9266C30.696 -54.8394 31.0826 -57.7069 31.1028 -63.9282L31.1231 -68.8089L31.6294 -68.8697C32.984 -69.0063 36.0785 -69.2347 36.9961 -69.2747L38.0289 -69.295L38.1707 -67.7963C38.3526 -65.6245 38.3121 -61.0583 38.0897 -58.9261C37.6443 -54.8406 36.5276 -49.8829 35.457 -47.3016C34.4663 -44.9545 32.0927 -40.7793 30.3535 -38.4313C28.4323 -35.8097 20.8751 -28.2746 20.4302 -28.5485Z" fill="#475569"/>
<path fill-rule="evenodd" clip-rule="evenodd" d="M30.1713 81.8235L30.0055 83.6867H37.5834C37.5027 83.5496 37.4007 81.6311 37.3404 79.4136C37.2395 75.6079 37.2616 75.1339 37.8669 71.1711C39.1207 62.9549 41.1737 57.5342 44.874 52.7218C48.0087 48.672 50.5717 46.2152 55.5872 42.5959C57.8504 40.9538 58.4281 40.5523 61.764 38.3228C65.2787 35.9583 66.3082 35.2291 68.9939 33.1586C74.7941 28.7597 79.9105 23.202 82.2182 18.8406C82.5009 18.2938 83.1101 17.1919 83.5549 16.3901C85.0918 13.6316 87.3431 7.30407 88.152 3.46954C88.3549 2.54728 88.9033 0.132267 89.3873 -1.89717C89.6414 -2.97245 89.9292 -4.16311 90.1778 -5.19124C90.404 -6.12725 90.5977 -6.92855 90.7037 -7.38539C91.1883 -9.39665 92.0192 -12.2595 92.3036 -12.8534C92.3842 -13.025 92.6458 -13.6522 92.9434 -14.3655C93.0189 -14.5465 93.0967 -14.733 93.1744 -14.919C95.8237 -21.1991 99.0557 -25.5811 105.062 -31.0394C107.934 -33.6406 113.525 -37.7998 114.175 -37.8035C114.256 -37.8035 114.337 -37.9082 114.337 -38.006C114.289 -38.2863 110.203 -42.4735 109.74 -42.7652C109.434 -42.9177 108.028 -42.0848 105.528 -40.1932C98.5527 -34.9906 93.4325 -29.5707 89.7924 -23.5665C86.4757 -18.1082 84.5853 -12.8621 82.8865 -4.46914C82.605 -3.08808 82.3212 -1.8843 82.2385 -1.75541C82.1778 -1.65765 81.8733 -2.29431 81.5702 -3.19328C81.2668 -4.09322 80.496 -5.99636 79.869 -7.38539C78.1526 -11.1953 76.4064 -16.1 75.6972 -19.1517C75.091 -21.7124 75.0491 -22.0759 75.0289 -26.0575C75.0086 -29.716 75.0496 -30.3708 75.3732 -30.9382C75.5532 -31.306 75.6769 -31.647 75.6769 -31.647C75.6365 -31.6665 74.3371 -31.8781 72.7809 -32.1128C69.3202 -32.6332 68.6164 -32.7791 68.449 -32.5437C68.3836 -32.4517 68.4001 -32.3014 68.366 -32.0925C68.2852 -31.7371 68.1835 -29.9393 68.1028 -28.1029C67.9612 -24.6988 68.1845 -21.3301 68.7306 -18.1998C69.2168 -15.5573 71.4679 -9.19864 73.4492 -4.93493C76.3802 1.40204 77.336 6.92472 76.3452 11.8538C75.9207 13.9229 74.7242 17.2316 74.0163 18.3343C73.7744 18.7047 73.2456 19.5099 72.8417 20.0962C71.8912 21.5244 68.9905 24.4591 66.6041 26.435C64.6506 28.0549 63.3129 29.0797 63.1006 29.1082C63.0402 29.1082 62.7745 29.3013 62.493 29.5538C62.2304 29.7883 60.1181 31.2073 57.8351 32.6928C55.5503 34.1598 53.177 35.7662 52.5899 36.2166C52.0237 36.6861 51.334 37.1732 51.0711 37.3102C50.536 37.5912 47.4273 40.0895 45.0765 42.1301C42.8722 44.0278 40.1326 47.1651 38.3327 49.8258C36.617 52.3652 34.6292 56.0548 34.1204 57.6227L33.7761 58.6758L33.128 56.8531C32.4 54.7989 30.8783 51.3383 29.6042 48.8537C27.1207 44.0464 26.4694 39.9645 27.3765 35.0015C27.9427 32.0284 29.4854 27.4645 31.1231 23.9238C31.4261 23.2789 32.0149 22.0078 32.4395 21.0886C33.4102 18.9952 35.2755 14.3463 35.8215 12.6638C36.0643 11.9584 36.4905 10.3713 36.7733 9.14002C37.0563 7.90856 37.4625 6.19265 37.6847 5.3327C37.9071 4.47189 38.1709 3.13962 38.2922 2.39619C39.1819 -3.27648 39.6932 -5.07856 42.221 -11.456C43.273 -14.1357 45.4055 -17.4918 48.1953 -20.9338C49.3276 -22.3421 54.4784 -27.4691 58.0377 -30.7559C61.0914 -33.5535 64.6018 -37.3413 66.4421 -39.7477C71.2756 -46.0277 74.6856 -54.1708 75.4339 -61.1943C75.515 -61.8944 75.6572 -62.513 75.7377 -62.5714C76.1162 -62.7858 75.8733 -63.0158 74.7656 -63.503C73.3499 -64.1094 70.0058 -65.2041 69.5609 -65.2041C69.0971 -65.2023 68.891 -64.5415 68.3255 -61.3765C67.6985 -57.8761 66.6828 -54.4452 65.389 -51.4532C64.8419 -50.2241 64.4021 -49.1813 64.3765 -49.0837C64.3765 -49.0837 63.7678 -48.0292 62.9993 -46.8358C60.0273 -42.2789 58.8536 -41.007 49.4104 -31.9305C42.4396 -25.2258 40.2113 -22.54 37.4821 -17.5923C36.5318 -15.8695 35.1722 -12.7331 34.6469 -11.0915C34.5242 -10.6598 34.2807 -9.93671 34.1204 -9.47132L33.7963 -8.641L33.0065 -10.0181C32.0564 -11.7195 31.6039 -12.3336 29.4625 -14.757C27.6221 -16.8112 23.4859 -20.7551 21.8276 -22.0071C18.3465 -24.6523 11.6569 -30.9229 9.77776 -33.3076C9.39412 -33.7958 8.84542 -34.4528 8.54241 -34.7657C7.5717 -35.8222 4.75396 -41.0562 3.70225 -43.717C1.55857 -49.2535 1.08846 -51.8725 0.158194 -63.7865C0.0574597 -64.9364 -0.0268076 -65.2013 -0.287342 -65.1838C-0.853611 -65.1838 -3.93465 -64.2323 -5.37053 -63.665L-6.70715 -63.1182L-6.64639 -61.2753C-6.58479 -59.2937 -6.07925 -53.0962 -5.87682 -51.7975C-5.67459 -50.4475 -4.3971 -45.8408 -3.42636 -42.8867C-2.45409 -39.97 0.464216 -34.0444 1.63657 -32.5583C1.96136 -32.1647 2.59083 -31.2982 3.01369 -30.6749C4.81902 -28.0898 9.66649 -23.1683 13.5243 -20.0225C16.4354 -17.6366 19.5633 -14.854 22.0301 -12.4483C26.1126 -8.4599 28.3695 -5.08128 29.4422 -1.26937C30.0078 0.723965 30.0674 6.02566 29.5435 8.55272C28.9168 11.584 26.7642 17.2004 24.2375 22.3442C22.3971 26.0809 21.867 27.4392 21.139 30.0803C20.5123 32.3102 20.0859 34.7001 20.0859 35.9128V36.9862L19.6404 36.5204C18.3665 35.249 14.6335 32.3956 11.5194 30.2828C6.24447 26.705 0.565231 22.5172 -1.05691 21.0278C-2.69503 19.5409 -4.92592 16.3255 -5.5933 14.4865C-7.91757 8.12885 -7.37051 0.398146 -4.21618 -5.13745C-2.01198 -9.03006 0.50883 -12.1037 4.75534 -16.1139L7.97536 -19.1517L7.40832 -19.82C7.10589 -20.171 6.06784 -21.2297 5.09962 -22.1084L3.35797 -23.7488L2.26437 -22.9792C0.868941 -21.9815 -4.52155 -16.7725 -5.6743 -15.3443C-8.36215 -11.9418 -10.9411 -7.54015 -12.0333 -4.4894C-12.3771 -3.53076 -12.6612 -2.62142 -12.6612 -2.48448C-12.6646 -2.32487 -12.7655 -1.98086 -12.8839 -1.6744C-13.1467 -0.990009 -13.3905 -1.31927 -13.5725 -2.68699C-14.6039 -10.2778 -18.1747 -20.0678 -21.8352 -25.3892C-24.4864 -29.2236 -29.863 -34.896 -33.804 -37.9655C-34.201 -38.2925 -35.0128 -38.9271 -35.8365 -39.571C-36.1502 -39.8163 -36.4657 -40.0629 -36.7607 -40.2945C-37.827 -41.1312 -39.1078 -42.1065 -39.6365 -42.4614L-40.568 -43.1095L-42.2287 -41.6108C-42.4084 -41.4521 -42.5975 -41.2851 -42.7895 -41.1156C-43.5879 -40.4106 -44.4359 -39.6619 -44.8614 -39.2819C-45.4075 -38.8123 -45.8335 -38.3266 -45.8335 -38.2288C-45.8013 -38.1138 -45.0623 -37.5685 -44.1526 -37.0137C-42.033 -35.6659 -40.4374 -34.4728 -37.5505 -32.0318C-34.4563 -29.4102 -33.335 -28.3334 -31.0295 -25.6727C-28.3004 -22.524 -26.7133 -20.1094 -25.1565 -16.843C-22.9157 -12.1351 -22.094 -9.4242 -20.0733 -0.236528C-18.9216 4.94329 -18.6949 5.83089 -17.9874 7.88441C-16.552 12.0678 -14.8435 15.3567 -12.3776 18.7393C-10.4595 21.3561 -9.18966 22.7494 -6.1806 25.5237C-2.54033 28.8691 0.265225 31.0461 4.43131 33.7459C6.91085 35.3454 8.77015 36.6881 10.2638 37.9177C10.7087 38.2894 11.6824 39.0502 12.4105 39.5784C14.414 41.0289 18.9528 45.6188 20.2682 47.4968C21.9467 49.8836 24.097 53.544 25.0071 55.6178C27.1895 60.4864 28.6738 65.8606 29.4827 71.9407C29.8462 74.6563 30.2708 80.7159 30.1713 81.8235Z" fill="#475569"/>
</g>
</svg>
